<?xml version="1.0" encoding="UTF-8"?>
<!DOCTYPE svg PUBLIC "-//W3C//DTD SVG 1.1//EN" "http://www.w3.org/Graphics/SVG/1.1/DTD/svg11.dtd">
<!-- Creator: CorelDRAW -->
<svg xmlns="http://www.w3.org/2000/svg" xml:space="preserve" width="29.105mm" height="27.902mm" version="1.1" style="shape-rendering:geometricPrecision; text-rendering:geometricPrecision; image-rendering:optimizeQuality; fill-rule:evenodd; clip-rule:evenodd"
viewBox="0 0 2910.5 2790.2"
 xmlns:xlink="http://www.w3.org/1999/xlink"
 xmlns:xodm="http://www.corel.com/coreldraw/odm/2003">
 <defs>
  <style type="text/css">
   <![CDATA[
    .fil1 {fill:#0052A4}
    .fil0 {fill:#59B646}
   ]]>
  </style>
 </defs>
 <g id="Layer_x0020_1">
  <metadata id="CorelCorpID_0Corel-Layer"/>
  <g id="_2140140591856">
   <path class="fil0" d="M800.85 1556.12c-80.59,34.1 0.77,-21.78 -49.62,37.59 -3.25,3.88 -11.63,80.83 -26.75,46.62 -2.7,-6.11 -7.81,18.73 -12.6,27.64 -63.74,201.71 -64.7,394.17 -27.72,621.36l88.46 5.12c72.62,8.33 48.76,13.86 108.98,-21.81 10.48,-70.89 33.17,-131.91 39.62,-187.66 12.45,-107.94 29.91,-71 -20.31,-122.37 -8.95,-64.24 -23.12,-47.16 40.94,-52.54l184.82 48.58 93.73 60.29c4.51,-7.27 17.42,10.24 26.18,15.28 -22.81,96.73 -71.54,240.76 44.92,277.09l150.3 3.11c76.6,-151.76 81.93,-308 90.93,-501.26 60.58,17.46 30.26,-6.72 48.8,53.84l-9.25 339.09 -19.98 110.44c96.61,-34.68 71.09,11.89 93.28,-87.44 6.64,-9.72 14.13,-22.27 19.58,-29.42l72.23 -79.56 144.04 9.49c156.09,410.18 451.75,75.83 455.86,73.03 52.57,-35.55 107.64,-43.77 158.09,-65.47 15.59,-115.54 8.87,-178.48 -48.77,-245.21 -72.37,10.41 -50.41,36.33 -116.85,113.01 -51.56,-295.48 135.39,-530.33 -387.85,-820.97 -161.02,67.16 69.46,28.31 -253.4,142.15 -121.69,42.94 -107.21,74.74 -221.14,135.9 -238.84,128.3 -406.14,61.06 -666.52,94.08z"/>
   <path class="fil1" d="M771.51 2391.82c-5.91,265.68 -37.93,102.48 -260.07,97.54 42.2,-158.09 126.59,-128.64 260.07,-97.54zm-59.63 -723.85c4.79,-8.91 9.9,-33.75 12.6,-27.64 15.12,34.21 23.5,-42.74 26.75,-46.62 50.39,-59.37 -30.97,-3.49 49.62,-37.59 260.38,-33.02 427.68,34.22 666.52,-94.08 113.93,-61.16 99.45,-92.96 221.14,-135.9 322.86,-113.84 92.38,-74.99 253.4,-142.15 523.24,290.64 336.29,525.49 387.85,820.97 66.44,-76.68 44.48,-102.6 116.85,-113.01 57.64,66.73 64.36,129.67 48.77,245.21 -50.45,21.7 -105.52,29.92 -158.09,65.47 -4.11,2.8 -299.77,337.15 -455.86,-73.03l-144.04 -9.49 -72.23 79.56c-5.45,7.15 -12.94,19.7 -19.58,29.42 -22.19,99.33 3.33,52.76 -93.28,87.44l19.98 -110.44 9.25 -339.09c-18.54,-60.56 11.78,-36.38 -48.8,-53.84 -9,193.26 -14.33,349.5 -90.93,501.26l-150.3 -3.11c-116.46,-36.33 -67.73,-180.36 -44.92,-277.09 -8.76,-5.04 -21.67,-22.55 -26.18,-15.28l-93.73 -60.29 -184.82 -48.58c-64.06,5.38 -49.89,-11.7 -40.94,52.54 50.22,51.37 32.76,14.43 20.31,122.37 -6.45,55.75 -29.14,116.77 -39.62,187.66 -60.22,35.67 -36.36,30.14 -108.98,21.81l-88.46 -5.12c-36.98,-227.19 -36.02,-419.65 27.72,-621.36zm1099.97 -446.54c-35.1,2.92 -187.69,29.42 -219.15,40.93 -139.89,51.38 -172.34,219.14 -561.12,219.14 -260.87,0 -617.67,-88.04 -617.67,-325.08 0,-136 45.88,-140.11 106.59,-218.49 140.85,-181.85 -17.44,-659.29 348.53,-659.29 1076.98,0 826.36,361.98 919.16,738.59 23.89,96.84 23.66,82.47 23.66,204.2zm-1495.48 -130.06c0,268.6 139.24,371.79 357.61,422.66 -103.71,216.15 -97.53,460.25 -97.53,780.26 -515.9,120.19 81.98,481.14 276.07,243.98 113.52,-138.65 93.16,-417.31 211.59,-504.05 146.94,77.76 97.52,62.02 97.52,292.6 -229.23,121.3 -264.17,260.07 65.02,260.07 -62.82,-173.56 82.55,121.33 -29.8,-41.52 -54.52,-79.1 -108.59,-79.98 2.08,-115.03 24.27,-7.68 125.33,-9.95 150.28,-4.26 127.03,29.06 18.33,-28.11 105.02,63.28 -22.69,56.21 14.21,48.76 -195.05,97.53l0 65.01c271.7,0 315.13,8.67 260.07,-227.55 127.29,-29.69 194.25,-70.27 227.58,-195.08 242.84,20.21 207.17,351.2 665.65,47.93 178.71,-118.26 179.62,-42.28 179.62,-308.03 0,-104.36 -90.39,-153.83 -195.07,-162.54 0,-306.8 -9.64,-351.54 -169.56,-513.16 -190.15,-192.26 -383.11,-215.65 -383.11,-332.11 0,-85.14 49.62,-153.06 -14.2,-375.49 -32.17,-112.21 -110.39,-204.4 -188.61,-267 -65.55,-52.41 -954.56,-464.2 -1132.16,185.31 -23.76,86.82 -22.73,273.55 -53.47,336.62 -22.47,46.03 -139.55,134.11 -139.55,250.57z"/>
   <path class="fil1" d="M706.5 441.17c0,95.54 -5.45,118.77 48.58,180.13 131.16,149.03 261.84,-13.63 439.08,-17.59l0 -65c-198.06,-21.66 -40.32,-69.66 -227.59,-195.07 -5.83,5.53 -15.93,5.26 -18.16,15.82 -13.32,63.21 -69.38,-59.02 -46.84,211.77 -119.96,-32.02 -126.68,-75.8 -130.06,-227.59 -54.79,38.09 -65.01,4.65 -65.01,97.53z"/>
   <path class="fil1" d="M804.03 1058.89c129.45,484.82 540.58,-65.05 260.08,-65.05 -261.27,0 -85.59,13.44 -260.08,65.05z"/>
   <path class="fil1" d="M1064.11 863.83c137.73,11.44 125.79,72.65 162.54,-65.05 -87.78,-7.3 -88.43,-15.24 -162.54,-32.49l0 97.54z"/>
   <path class="fil1" d="M673.98 831.3l0 65.01c129.48,-10.75 106.05,-13.13 162.54,-97.53 -61.75,5.15 -113.85,13.63 -162.54,32.52z"/>
   <path class="fil1" d="M869.04 896.31c177.83,0 71.77,93.23 162.54,-32.48l-162.54 0 0 32.48z"/>
  </g>
 </g>
</svg>
