<?xml version="1.0" encoding="UTF-8"?>
<!DOCTYPE svg PUBLIC "-//W3C//DTD SVG 1.1//EN" "http://www.w3.org/Graphics/SVG/1.1/DTD/svg11.dtd">
<!-- Creator: CorelDRAW -->
<svg xmlns="http://www.w3.org/2000/svg" xml:space="preserve" width="29.105mm" height="27.902mm" version="1.1" style="shape-rendering:geometricPrecision; text-rendering:geometricPrecision; image-rendering:optimizeQuality; fill-rule:evenodd; clip-rule:evenodd"
viewBox="0 0 2910.5 2790.2"
 xmlns:xlink="http://www.w3.org/1999/xlink"
 xmlns:xodm="http://www.corel.com/coreldraw/odm/2003">
 <defs>
  <style type="text/css">
   <![CDATA[
    .fil0 {fill:#0052A4}
    .fil1 {fill:#59B646}
   ]]>
  </style>
 </defs>
 <g id="Layer_x0020_1">
  <metadata id="CorelCorpID_0Corel-Layer"/>
  <g id="_2139472156912">
   <path class="fil0" d="M1598.6 2214.56l0 209.85c0,61.65 -21.13,18.15 78.7,104.94 -297.1,0 -157.4,-90.75 -157.4,-498.43 103.08,-2.29 61.54,7.19 131.16,-26.24 -10.72,128.89 -52.46,96.11 -52.46,209.88zm-367.24 -262.34c56.42,-39.22 34.54,-3.84 52.45,-78.7 137.32,32.01 112.84,66.18 209.85,131.16 -82.32,155.62 -139.05,422.89 -52.45,603.36l-104.95 0c55.5,-231.78 11.13,-70.42 -30.54,-389.15 -15.4,-117.67 -24.95,-173.25 -74.36,-266.67zm19.14 -206.38c9.73,-94.44 20.58,-69.77 33.31,-89.51 173.94,39.19 275.66,24.91 462.05,21.81 -18.28,235.2 -139.85,387.29 -368.54,142.09l-126.04 3.78 -0.78 -78.17zm505.5 -134.65c-91.93,0 -359.91,21.19 -428.35,-17.14 -32.28,-18.09 -87.22,35.11 61.1,-245.17 -179.3,47.87 -209.88,291.18 -209.88,524.64 -86.72,-23.14 -111.6,-8.18 -38.08,-379.11 16.05,-80.87 30.43,-137.94 69.74,-192.56 105.81,-147.05 232.13,-42.66 405.36,-119.32 80.03,-35.44 261.41,-160.43 291.4,-233.24 19.18,-46.57 8.61,-43.81 33.86,-97.32 18.19,-38.57 26.03,-43.03 50.94,-80.21l67.08 64.07c2.51,2.76 7.53,9.91 11.62,14.62 -42.17,62.99 -83.38,80.96 -118.42,143.89 -38.86,69.81 -38.58,132.83 -82.05,208.36 -120.55,209.42 -114.32,-142.55 -114.32,408.49zm-996.83 -996.83c0,145.59 71.85,255.64 183.61,314.79 -29.72,-127.53 -240.81,-350.51 44.8,-611.02 154.39,-140.79 516.09,-237.83 653.13,122.97 32.9,86.63 25.16,116.9 78.79,183.55 48.83,60.66 88.95,50.22 88.95,173.35 0,150.05 -181.69,341 -314.79,341 -240.8,0 -301,-52.02 -403.16,-66.61 -130.25,-18.59 -4.98,14.16 -147.72,14.16 -46.88,0 10.25,23.61 -78.7,-78.7 5.08,228.1 156.9,136.7 228.9,144.23 43.29,4.55 84.12,25.96 112.13,39.41 -92.33,137.87 -100.01,56.7 -135.86,283.84 -15.34,97.22 -47.78,289.1 -47.78,398.19 85.89,57.51 36.5,68.63 157.4,78.7 6.44,77.27 31.26,285.67 44.43,349.21 92.3,444.58 34.27,35.23 34.27,306.61 0,192.23 262.39,12.49 314.17,6.33 1.76,-0.22 309.58,62.05 244.39,-94.13 -61.75,-148.04 -138.83,59.49 -138.83,-253.23 0,-144.81 255.21,-659.63 131.15,-918.13 157.98,-42.2 141.16,-191.23 266.27,-363.34 170.04,-233.95 -3.93,-82.45 -3.93,-371.18l-78.7 0c-23.02,86.2 -38.05,86.38 -104.94,131.15l-107.85 -180.66c-47.9,-74.27 -99.34,-411.89 -404.55,-461.75 -294.93,-48.17 -615.58,217.26 -615.58,511.26z"/>
   <path class="fil1" d="M1377.32 1820.23c228.69,245.2 350.27,93.11 368.54,-142.09 -186.4,3.09 -288.1,17.38 -462.05,-21.81 -12.73,19.73 -23.58,-4.92 -33.31,89.51l0.77 78.16 126.05 -3.77z"/>
   <path class="fil0" d="M1310.05 430.72l0 -157.39 -131.18 0c-14.38,61.78 -24.45,77.49 -26.21,157.39 -121.83,10.17 -45.89,-28.13 -104.94,52.49l143.33 20.01c5.42,0.1 12.88,-0.21 18.25,-0.18 237.17,1.79 393.79,-129.98 205.66,-255.92 0,165.88 5.49,125.2 -104.91,183.6z"/>
   <path class="fil0" d="M1257.57 876.7c28.22,105.68 44.77,85.42 131.18,131.15 4.49,-4.28 12.24,-16.36 14.07,-12.15l64.63 -145.25 -209.88 26.25z"/>
   <path class="fil0" d="M1624.84 666.82l0 -52.46c-59.79,-13.94 -60.35,-20.32 -131.18,-26.24 28.16,105.4 7.13,75.94 131.18,78.7z"/>
   <path class="fil0" d="M1152.66 745.51c119.75,-27.88 94.03,-5.45 104.91,-104.91 -86.45,23.09 -83.35,14.78 -104.91,104.91z"/>
   <path class="fil0" d="M1362.51 745.51c47.84,-23.7 32.81,-20.23 104.94,-26.21 -40.9,-56.64 -80.22,-69.84 -104.94,26.21z"/>
  </g>
 </g>
</svg>
