<?xml version="1.0" encoding="UTF-8"?>
<!DOCTYPE svg PUBLIC "-//W3C//DTD SVG 1.1//EN" "http://www.w3.org/Graphics/SVG/1.1/DTD/svg11.dtd">
<!-- Creator: CorelDRAW -->
<svg xmlns="http://www.w3.org/2000/svg" xml:space="preserve" width="29.105mm" height="27.902mm" version="1.1" style="shape-rendering:geometricPrecision; text-rendering:geometricPrecision; image-rendering:optimizeQuality; fill-rule:evenodd; clip-rule:evenodd"
viewBox="0 0 2910.5 2790.2"
 xmlns:xlink="http://www.w3.org/1999/xlink"
 xmlns:xodm="http://www.corel.com/coreldraw/odm/2003">
 <defs>
  <style type="text/css">
   <![CDATA[
    .fil0 {fill:#0052A4}
    .fil1 {fill:#59B646}
    .fil2 {fill:#FDFCFB}
   ]]>
  </style>
 </defs>
 <g id="Layer_x0020_1">
  <metadata id="CorelCorpID_0Corel-Layer"/>
  <g id="_2140125028608">
   <path class="fil0" d="M1494.19 1892.15l-36.71 207.09c-225.47,28.8 -320.51,-137.78 -336.41,-331.46l373.12 124.37zm-190.15 -344.09c107.98,41.4 188.62,133.36 173.57,214.96 -165.27,55.14 -176.52,-42.78 -173.57,-214.96zm261.31 -640.29c86.93,0 96.15,46.92 130.01,97.53l-260.07 0c33.87,-50.61 43.08,-97.53 130.06,-97.53zm-97.54 201.78c73.58,-3.88 158.24,5.46 222.75,-9.52 139.74,-32.41 -1.69,-47.81 167.38,-45.23 133.05,106.21 61.33,166.91 221.18,177.4 -44.62,-86.25 -80.06,-101.37 -93.42,-234.89 245.86,-83.82 205.01,-27.99 427.68,15.82 -89.24,457.56 247.79,294.94 -13.21,798.35l-177.79 -6.64c149.11,100.45 244.72,86.28 210.24,263.37 -274.02,55.45 -430.45,-142.57 -371.01,-335.64l124.22 -23 41.39 -6.57c-130.94,-107.63 -288.75,-76.14 -256.35,136.74 9.3,61.09 51.92,140.23 98.07,189.08l106.02 89.12c46.58,48.69 10.22,2.96 40.28,57.75 -187.8,120.5 -511.85,45.73 -525.9,-339.21l143.38 -128.68 -174.99 37.98c-75.03,265.79 35.6,227.4 -27.37,340.13 -218.45,-151.9 124.1,-357.72 -252.28,-592.95l79.94 -357.6c-164.54,252.62 -179.05,522.03 -524.02,604.05l-145.73 49.34c-68.42,46.54 -8.71,51.45 -133.24,61.82 -41.39,-86.28 -29.68,-34.79 -32.52,-162.54 -254.05,-5.65 -376.58,-157.17 -416.13,-364.87 -40.05,-210 -16.89,-442.12 114.47,-587 127.83,-140.96 232.46,-180.66 430.45,-152.51 98.56,14.01 52.41,24.69 144.14,51.22 223.22,64.51 326.58,-77.53 487.36,32.02 147.41,100.45 59.9,170.11 35.29,223.68 -27.53,60.01 -34.02,87.93 -47.81,147.25l97.53 71.73zm-1397.97 25.81c0,180.66 68.38,385.06 202.01,513.19 116.73,111.94 141.23,67.39 227.28,130.33 85.71,62.67 72.19,169.22 220.91,169.22 128.9,0 63.01,-124.18 325.12,-130.02 19.16,230.4 221.6,390.13 357.61,390.13 115.46,0 84.13,-90.27 284.57,-26.26 85.93,27.45 134.16,88.82 267.56,126.02 114.89,32.07 188.92,33.03 284.73,-43.12 139.04,-110.51 65.27,-74.3 268.52,-121.68 49.69,-213.31 57.48,-158.17 -32.53,-292.6 195.03,-291.25 155.29,-360.33 -32.48,-715.21l97.53 -97.54c82.71,43.78 93.46,20.78 142.46,117.62 138.96,274.82 -18.09,334.53 -44.93,435.06 315.41,-26.27 221.79,-545.57 -27.34,-625.33 -54.14,-17.35 -44.31,-7.1 -92.58,-8.98 -171.68,-6.68 -31.44,-13.59 -190.64,-62.71 -410.22,-126.56 -330.08,213.81 -585.01,-0.46 -114.92,-96.65 -126.14,-69.35 -162.65,-97.45 -102.57,-78.91 -49.81,-186.54 -236.65,-253.51 -94.47,-33.83 -135.59,8.1 -265.65,8.1 -223.59,0 -600.9,-299.51 -910.27,227.63 -41.47,70.69 -97.57,250.01 -97.57,357.57z"/>
   <path class="fil1" d="M1467.81 1109.55l-9.79 25.81 -79.94 357.6c376.38,235.23 33.83,441.05 252.28,592.95 62.97,-112.73 -47.66,-74.34 27.37,-340.13l174.99 -37.98 -143.38 128.68c14.05,384.94 338.1,459.71 525.9,339.21 -30.06,-54.79 6.3,-9.06 -40.28,-57.75l-106.02 -89.12c-46.15,-48.85 -88.77,-127.99 -98.07,-189.08 -32.4,-212.88 125.41,-244.37 256.35,-136.74l-41.39 6.57 36.55 95.27 177.79 6.64c261,-503.41 -76.03,-340.79 13.21,-798.35 -222.67,-43.81 -181.82,-99.64 -427.68,-15.82 13.36,133.52 48.8,148.64 93.42,234.89 -159.85,-10.49 -88.13,-71.19 -221.18,-177.4 -169.07,-2.58 -27.64,12.82 -167.38,45.23 -64.51,14.98 -149.17,5.64 -222.75,9.52z"/>
   <path class="fil0" d="M492.49 680.18c38.05,94.27 91.96,35.79 130.02,130.06 -172.45,-82.75 -316.72,141.61 -65.01,162.54 -51.8,77.37 -39.36,33.86 -65.01,130.05 140.38,-3.11 136.89,0.43 184.58,-108.01 15.97,-36.29 75.49,-200.33 75.49,-217.11 0,-78.41 -192.45,-180.01 -260.07,-97.53z"/>
   <path class="fil2" d="M2222.38 1804.84l-36.55 -95.27 -124.22 23c-59.44,193.07 96.99,391.09 371.01,335.64 34.48,-177.09 -61.13,-162.92 -210.24,-263.37z"/>
   <path class="fil1" d="M1121.07 1767.78c15.9,193.68 110.94,360.26 336.41,331.46l36.71 -207.09 -373.12 -124.37z"/>
   <path class="fil2" d="M1477.61 1763.02c15.05,-81.6 -65.59,-173.56 -173.57,-214.96 -2.95,172.18 8.3,270.1 173.57,214.96z"/>
   <path class="fil0" d="M1012.64 1232.89c91.27,162.43 226.32,7.79 162.58,-130.06 -134.55,48.69 -20.78,78.72 -162.58,130.06z"/>
   <path class="fil0" d="M941.14 901.28c79.68,106.36 -14.44,58.94 136.54,71.5 -12.59,-150.99 34.87,-56.83 -65.04,-130.02l-71.5 58.52z"/>
   <path class="fil0" d="M720.04 1232.89c57.06,85.17 16.47,67.2 130.06,97.53l0 -130.05c-53.19,4.53 -101.11,-0.12 -130.06,32.52z"/>
   <path class="fil0" d="M947.63 1167.84c8.56,-100.64 -0.39,-61.44 32.52,-130.02 -142.3,37.98 -136.2,54.07 -32.52,130.02z"/>
  </g>
 </g>
</svg>
