<?xml version="1.0" encoding="UTF-8"?>
<!DOCTYPE svg PUBLIC "-//W3C//DTD SVG 1.1//EN" "http://www.w3.org/Graphics/SVG/1.1/DTD/svg11.dtd">
<!-- Creator: CorelDRAW -->
<svg xmlns="http://www.w3.org/2000/svg" xml:space="preserve" width="29.105mm" height="27.902mm" version="1.1" style="shape-rendering:geometricPrecision; text-rendering:geometricPrecision; image-rendering:optimizeQuality; fill-rule:evenodd; clip-rule:evenodd"
viewBox="0 0 2910.5 2790.2"
 xmlns:xlink="http://www.w3.org/1999/xlink"
 xmlns:xodm="http://www.corel.com/coreldraw/odm/2003">
 <defs>
  <style type="text/css">
   <![CDATA[
    .fil0 {fill:#0052A4}
    .fil1 {fill:#59B646}
   ]]>
  </style>
 </defs>
 <g id="Layer_x0020_1">
  <metadata id="CorelCorpID_0Corel-Layer"/>
  <path class="fil0" d="M296.9 2291.05l90.54 -104.53c103.14,32.64 59.68,20.21 137.01,72 -15.28,42.28 -56.4,102.26 -105.79,110.06 -78.3,12.39 -82.64,-24.12 -121.76,-77.53zm2165.64 -616.8c-49.68,-44.51 71.97,-81.44 -77.91,-21.73 -47.04,169.14 -10.83,13.75 22.01,82.28 329.91,223.95 -449.09,420.86 -646.14,429.5l-25.69 -308.8c-22.19,-58.57 -12.09,-28.66 -39.97,-58.29 -44.43,95.53 8.37,140.33 -0.81,269.28 -7.56,106.51 -49.1,128.49 -95.64,189.61 -220.03,-68.19 -194.08,-265.21 -293.68,-388.71 -41.58,78.88 -3.42,127.76 9.37,235.23 -406.29,-26.95 -527.64,137.78 -645.22,-140.46 -63.65,-41.19 80.76,-53.48 -76.6,-31.06 -1.27,151.67 -22.84,57.63 50.42,136.81l-24.46 85.06c-89.66,-1.31 -160.52,-33.41 -223.86,-89.51 75.63,-214.46 176.17,-270.55 249.2,-403.49 403.26,114.2 685.3,134.36 1012.03,-343.13 303.01,92.11 438.72,245.86 585.16,450.83 75.11,-82.36 -7.34,-75.79 25.74,-201.24 174.43,-68.12 331.33,-57.22 405.44,106.91 -83.32,53.18 -114.24,56.7 -209.39,0.91zm-1385.39 -1106.3c200.84,0 376.81,99.15 481.57,201.18 121.57,118.37 159.35,369.28 6.11,481.55 -59.8,223.85 -570.69,587.85 -910.32,292.6l260.07 -65.02c-161.71,0 -357.99,-24.89 -477.41,-75.25 -172.64,-72.77 -140.27,-191.28 -140.27,-412.4 204.89,-137.21 194.96,-33.65 390.13,-325.13 273.12,182.93 239.38,250.51 422.61,162.59 -25.22,-34.5 -9.64,-17.36 -49.88,-47.62l-80.13 -49.93c130.59,-34.9 94.07,-8.82 97.52,-162.57zm-227.58 65.05c-84.05,10.4 -9.95,-109.9 -1.08,-40.36l1.08 40.36zm-260.07 942.79l487.65 -1007.84 -487.65 1007.84zm0 0c-33.34,124.84 -171.64,219.23 -239.73,345.47 -57.55,106.71 -32.74,135.4 -71.84,220.8 -63.21,138.13 -95.69,28.8 -111.09,214 404.69,270.97 495.15,-110.4 520.19,-162.54l422.61 0c-61.58,116.38 -58.36,72.95 -32.49,195.06 76.54,17.82 96.01,30.3 195.08,32.48 -18.74,-70.12 -14.4,-33.63 -45.89,-84.16 -68.12,-109.32 1.69,69.04 -51.64,-78.38 137.65,-95.65 70.38,-76.71 260.07,-32.52l0 97.53c-112.41,30.03 -100.04,17.66 -130.06,130.06 122.27,-28.49 230.27,-71.43 323.12,-132.05 338.87,-221.37 244.29,22.89 739.98,-235.35 129.26,-67.32 200.67,-96.61 204.82,-282.81 275.93,-22.96 216.07,-357.65 -195.07,-357.65 -78.13,0 -95.56,52.69 -162.54,97.55 -124.25,-83.18 -335.57,-257.16 -487.65,-292.6 10.98,-131.86 32.51,-80.9 32.51,-292.6 0,-289.76 -471.42,-520.16 -780.25,-520.16 -122.45,0 -61.48,21.39 -195.08,32.5 -4.4,-196.92 21.05,-95.27 -65.04,-130.02 -99.61,207.59 2.62,165.58 -183.51,369.16 -193.41,211.62 -212.92,74.19 -305.06,248.48 -93.28,176.32 -58.65,437.93 154.13,529.55 127.4,54.87 83.04,6.92 204.43,88.2z"/>
  <path class="fil1" d="M642.68 2067.91c-73.27,-79.17 -51.69,14.86 -50.42,-136.81 157.36,-22.43 12.94,-10.14 76.61,31.06 117.57,278.24 238.91,113.51 645.21,140.47 -12.79,-107.48 -50.96,-156.36 -9.37,-235.23 99.6,123.49 73.65,320.51 293.67,388.71 46.54,-61.14 88.09,-83.1 95.65,-189.62 9.18,-128.94 -43.62,-173.75 0.81,-269.29 27.88,29.65 17.78,-0.27 39.97,58.29l25.69 308.8c197.06,-8.64 976.05,-205.54 646.13,-429.48 -32.83,-68.55 -69.04,86.85 -22,-82.29 149.87,-59.71 28.22,-22.77 77.91,21.73 95.15,55.79 126.06,52.26 209.39,-0.92 -74.11,-164.12 -231.01,-175.02 -405.45,-106.9 -33.06,125.45 49.38,118.88 -25.73,201.24 -146.45,-204.97 -282.15,-358.72 -585.16,-450.83 -326.73,477.48 -608.77,457.32 -1012.03,343.13 -73.03,132.93 -173.56,189.03 -249.21,403.49 63.36,56.1 134.21,88.2 223.87,89.51l24.46 -85.06z"/>
  <path class="fil0" d="M1564.82 1250.68c0,-67.43 12.25,-125.07 -18.35,-176.71 -47.39,-79.95 -15.67,-48 -144.23,-50.84 40.36,151.02 51.19,28.72 65.05,195.06 -127.91,29.8 -131.86,15.05 -162.58,130.02 151.48,-3.38 171.52,-38.21 260.11,-97.53z"/>
  <path class="fil0" d="M621.98 1185.67c192.99,44.96 125.14,79.1 325.12,32.52l0 -97.53 -325.12 0 0 65.01z"/>
  <path class="fil0" d="M914.58 925.59l0 97.54 130.05 0c-8.56,-100.69 0.39,-61.48 -32.52,-130.06 -56.22,31.6 -64.13,18.93 -97.53,32.52z"/>
  <path class="fil0" d="M582.51 918.6c66.27,36.37 47.65,32.07 137,39.48 -8.56,-100.64 0.43,-61.44 -32.48,-130.02l-104.52 90.54z"/>
  <path class="fil0" d="M784.56 990.6c95.04,-22.77 46.81,4.19 97.53,-65.01l-97.53 0 0 65.01z"/>
 </g>
</svg>
