<?xml version="1.0" encoding="UTF-8"?>
<!DOCTYPE svg PUBLIC "-//W3C//DTD SVG 1.1//EN" "http://www.w3.org/Graphics/SVG/1.1/DTD/svg11.dtd">
<!-- Creator: CorelDRAW -->
<svg xmlns="http://www.w3.org/2000/svg" xml:space="preserve" width="29.105mm" height="27.902mm" version="1.1" style="shape-rendering:geometricPrecision; text-rendering:geometricPrecision; image-rendering:optimizeQuality; fill-rule:evenodd; clip-rule:evenodd"
viewBox="0 0 2910.5 2790.2"
 xmlns:xlink="http://www.w3.org/1999/xlink"
 xmlns:xodm="http://www.corel.com/coreldraw/odm/2003">
 <defs>
  <style type="text/css">
   <![CDATA[
    .fil0 {fill:#0052A4}
    .fil1 {fill:#59B646}
   ]]>
  </style>
 </defs>
 <g id="Layer_x0020_1">
  <metadata id="CorelCorpID_0Corel-Layer"/>
  <path class="fil0" d="M1469.72 2369.42c154.7,-74.28 287.1,-83.49 292.6,162.54 -109.32,25.49 -85.37,49.1 -172.34,-20.16 -53.22,-42.4 -87.47,-93.39 -120.26,-142.38zm81.75 -411.37c29.33,-130.98 80.17,-208.48 15.78,-301.39 -67.12,81.25 -66.96,169.79 -83.01,292.44 -72.28,292.32 64.76,239.73 -79.56,346.15 -51.84,-56.71 3.02,28.49 -29.88,-64.93l-91.66 -225.7c-58.83,-145.41 -6.95,-227.9 -79.49,-338.32 -87.32,141.68 34.44,407.06 72.39,520.71 -308.62,-22.39 -293.02,-236.38 -262.23,-664.63 126.36,-17.05 271.28,-36.33 383.71,-71.31 250.83,-78.03 491.16,-340.86 632.05,354.61 65.7,324.35 17.77,128.93 223.97,458.55l28.92 41.74c125.33,-129.43 25.46,-142.12 244.06,-177.74 -14.59,170.95 -82.13,251.97 -144.57,371.62l-551.21 -167.27c-61.25,-65.7 34.82,-264.34 50.99,-371.08 36.01,-237.68 23.77,-92.42 -35.17,-156.44l-76.19 340.14 -49.42 106.1 -77.13 -7.84 -100.76 -7.03 8.41 -278.38zm-406.88 541.41c-74.91,0 -97.53,-22.62 -97.53,-97.53 0,-265.26 514.17,-60.4 195.07,-32.51 -7.64,91.76 0.77,130.04 -97.54,130.04zm-598.93 -423.3c62.35,29.46 29.67,24.64 107.77,19.34 149.19,-33.59 169.61,-83.93 309.54,-133.92 25,91.77 67.55,189.98 75.37,268.02l-511.32 36.56c-72.91,-84.32 -140.56,-152.26 -117.41,-270.07 104.67,0.85 92.88,14.91 136.05,80.07zm273.82 -1624.89l128.71 -131.4c357.4,-204.38 814.97,-19.22 943.45,229.64l130.75 421.92c-190.42,91.39 -78.87,-44.28 -224.1,133.54 -278.2,340.57 -1365.91,539.2 -1082.45,-42.95 90.46,-185.86 -103.45,-459.02 103.64,-610.75zm-195.08 227.56l13.49 309.42c-5.14,18.59 -304.47,399.91 279.11,535.9l0 390.12c-125.29,29.18 -182.27,71.81 -292.6,97.53 -97.21,-65.13 -65.93,-97.53 -195.05,-97.53 -322.97,0 64.7,454.64 65.04,455.15l455.14 -32.54c0,214.53 45.58,260.12 260.07,260.12 107.76,0 78.19,-84.29 195.08,-162.59 93.07,88.28 240.71,382.08 431.79,136.39l46.96 -119.99c38.31,-171.1 -52.84,82.18 8.9,-48.88 81.67,39.17 115.63,39.58 201.6,91 59.75,35.72 141.45,104.07 221.06,104.07 181.96,0 292.6,-320.74 292.6,-520.18 -158.63,-37.98 -111.86,-77.8 -325.13,64.99 -72.12,-107.7 -89.58,-62.39 -128.52,-196.56 -26.46,-91.11 -36.93,-180.88 -61.89,-263.18 -43.67,-143.92 -107.87,-343.62 -264.73,-385.53 72.77,-312.36 260.08,-122.36 260.08,-357.59 0,-0.43 -119.04,-473.05 -208.55,-571.72 -353.57,-389.9 -1254.45,-317.18 -1254.45,311.6z"/>
  <path class="fil1" d="M1484.23 1949.1c16.05,-122.65 15.9,-211.2 83.02,-292.45 64.39,92.93 13.55,170.42 -15.78,301.39l-8.41 278.39 100.76 7.03 77.14 7.83 49.42 -106.09 76.18 -340.14c58.94,64.01 71.19,-81.25 35.17,156.44 -16.16,106.75 -112.24,305.38 -50.99,371.08l551.21 167.27c62.44,-119.65 129.98,-200.67 144.57,-371.62 -218.6,35.63 -118.73,48.3 -244.06,177.74l-28.91 -41.74c-206.2,-329.61 -158.28,-134.2 -223.98,-458.55 -140.89,-695.48 -381.22,-432.64 -632.04,-354.61 -112.43,34.98 -257.35,54.25 -383.72,71.3 -30.8,428.26 -46.39,642.26 262.22,664.64 -37.93,-113.66 -159.7,-379.03 -72.38,-520.72 72.54,110.44 20.66,192.92 79.49,338.33l91.66 225.71c32.9,93.42 -21.97,8.22 29.87,64.93 144.34,-106.44 7.29,-53.83 79.56,-346.16z"/>
  <path class="fil1" d="M653.44 2095.51l-68.39 53.3 -39.4 -72.65c-43.16,-65.16 -31.37,-79.22 -136.04,-80.06 -23.16,117.8 44.5,185.73 117.42,270.05l511.32 -36.55c-7.84,-78.03 -50.38,-176.25 -75.38,-268.02 -139.92,49.99 -160.35,100.33 -309.53,133.93z"/>
  <path class="fil0" d="M819.47 451.28c-65.81,282.58 180.94,389.86 487.67,227.55 -43.97,-121.49 -125.34,-205.97 -227.55,-260.07 -118.04,111.97 -76.76,86.7 -65.05,227.59 -191.96,-51.27 -26.69,-127.14 -195.07,-195.07z"/>
  <path class="fil0" d="M1014.54 1231.54c101.72,84.94 398.19,-39.86 303.04,-134.97 -30.45,-30.45 -253.89,67.89 -303.04,134.97z"/>
  <path class="fil0" d="M982.05 1036.48c41.4,-86.32 29.65,-34.79 32.49,-162.58l-97.53 0c3.72,167.11 -29.42,93.34 65.04,162.58z"/>
  <path class="fil0" d="M1242.13 873.9c0,89.96 25.07,78.21 97.53,97.53 -2.84,-127.75 8.91,-76.26 -32.52,-162.54 -28.92,16.24 -65.01,21.16 -65.01,65.01z"/>
  <path class="fil0" d="M1079.59 1068.96c97.91,-26.15 71.38,0.42 97.53,-97.53 -131.82,69.77 -69.62,-11.06 -97.53,97.53z"/>
  <path class="fil1" d="M653.44 2095.51c-78.1,5.3 -45.43,10.1 -107.79,-19.35l39.4 72.65 68.39 -53.3z"/>
 </g>
</svg>
