<?xml version="1.0" encoding="UTF-8"?>
<!DOCTYPE svg PUBLIC "-//W3C//DTD SVG 1.1//EN" "http://www.w3.org/Graphics/SVG/1.1/DTD/svg11.dtd">
<!-- Creator: CorelDRAW -->
<svg xmlns="http://www.w3.org/2000/svg" xml:space="preserve" width="29.105mm" height="27.902mm" version="1.1" style="shape-rendering:geometricPrecision; text-rendering:geometricPrecision; image-rendering:optimizeQuality; fill-rule:evenodd; clip-rule:evenodd"
viewBox="0 0 2910.5 2790.2"
 xmlns:xlink="http://www.w3.org/1999/xlink"
 xmlns:xodm="http://www.corel.com/coreldraw/odm/2003">
 <defs>
  <style type="text/css">
   <![CDATA[
    .fil1 {fill:#0052A4}
    .fil2 {fill:#0052A4}
    .fil0 {fill:#59B646}
   ]]>
  </style>
 </defs>
 <g id="Layer_x0020_1">
  <metadata id="CorelCorpID_0Corel-Layer"/>
  <g id="_2140134304400">
   <path class="fil0" d="M1578.36 958.68c85.67,71.3 15.74,-4.69 50.53,85.47 106.44,73.38 225.44,259.85 169.72,447.15 -68.96,231.78 -294.44,135.82 -259.76,405.8 259.8,58.52 604.43,-393.55 711.49,-54.72 37.7,119.31 -13.64,370.01 -86.21,472.42 -27.03,-193.14 47.85,-307.07 -7.91,-514.08 -380.91,-1.11 -393.93,365.36 -698.78,89.16 18.82,-286.34 144.92,-162.96 275.93,-407.52 14.48,-223.25 -64.04,-274.98 -119.15,-431.03l-100.1 -26.68c-222.41,296.59 -287.76,391.66 -762.71,431.02l-28.42 59.21c-30.41,349.77 98.53,332.03 390.29,380.3 338.86,56.1 279,116.85 397.08,389.25 281.84,650.39 1455.19,147.87 1025.55,-570.68 -107.44,-179.63 -274.94,-237.61 -395.32,-385.45 -137.58,-168.99 -82.52,-461.43 -174.83,-603.82 -109.93,-169.49 -420.81,-120.11 -387.4,234.2z"/>
   <path class="fil1" d="M751.41 1455.67c474.95,-39.36 540.3,-134.43 762.71,-431.02 36.94,-116.2 -0.81,-37.52 64.24,-65.97 -33.41,-354.31 277.47,-403.69 387.4,-234.2 92.31,142.39 37.25,434.83 174.83,603.82 120.38,147.84 287.88,205.82 395.32,385.45 429.64,718.55 -743.71,1221.07 -1025.55,570.68 -118.08,-272.4 -58.22,-333.15 -397.08,-389.25 -291.76,-48.27 -420.7,-30.53 -390.29,-380.3l-63.09 136.32c-6.03,48.42 16.48,137.81 38.63,175.02 116.5,195.6 496.96,95.11 632.62,246.78 11.33,12.71 257.81,910.13 1078.08,481.98 350.92,-183.2 460.17,-756.87 -27.46,-1142.47 -333.41,-263.61 -189.92,-232.2 -292.02,-585.77 -57.71,-199.9 -65.7,-62.78 -107.74,-347.39 -47.54,-321.63 -377.92,-500.34 -385.33,-167.38l42.12 -22.89c117.23,-51.88 -80.98,-20.08 120.46,-42.12 80.36,120.03 125.29,112.77 130.01,325.08 -58.36,0 -133.93,-7.33 -189.07,7.14 -171.8,45.04 -52.45,47.92 -136.51,90.62 -37.59,19.09 12.6,53.92 -35.79,1.42 -87.43,-94.84 119.58,-244.79 -158.47,-294.47 -328.08,-58.64 -233.96,-149.38 -490.27,-163.89 -334.72,-18.93 -604.63,321.2 -496.38,729.84 58.9,222.29 11.02,126.56 11.02,377.12 111.4,25.95 120.61,51.3 227.55,0 -56.18,-146.03 19.55,-3.27 -130.02,-65.05 37.98,-456.6 30.68,-53.34 -26.45,-431.72 -44.39,-294.21 198.98,-605.51 543.72,-476.6 217.3,81.25 108.17,128.06 425.53,128.06 -10.59,127.33 -42.08,88.55 -21.73,187.31 23.19,112.7 267.1,191.22 -200.21,566.11 -223.79,179.51 -221.41,149.71 -525.79,124.37l65.01 103.37z"/>
   <path class="fil2" d="M1628.89 1044.15l-14.67 7.18c55.11,156.05 133.63,207.78 119.15,431.03 -131.01,244.56 -257.11,121.18 -275.93,407.52 304.85,276.2 317.87,-90.27 698.78,-89.16 55.76,207.01 -19.12,320.94 7.91,514.08 72.57,-102.41 123.91,-353.11 86.21,-472.42 -107.06,-338.83 -451.69,113.24 -711.49,54.72 -34.68,-269.98 190.8,-174.02 259.76,-405.8 55.72,-187.3 -63.28,-373.77 -169.72,-447.15z"/>
   <path class="fil2" d="M198.74 1547.37c0,335.37 352.15,265.94 422.61,260.11l0 -97.53c-192.18,0 -309.38,26.3 -325.08,-162.58 95.03,-22.74 46.81,4.18 97.53,-65.01 -96.99,-81.02 -195.06,24.03 -195.06,65.01z"/>
   <path class="fil2" d="M1076.53 1027.22c0,53.18 19.47,97.53 65.01,97.53 86.93,0 96.15,-46.96 130.05,-97.53 -41.08,-21.74 -195.06,-121.5 -195.06,0z"/>
   <path class="fil2" d="M1791.74 507.03c-33.25,-124.6 -52.72,-96.88 -195.06,-130.05 13.44,161.5 30.52,130.05 195.06,130.05z"/>
   <path class="fil2" d="M426.29 1514.88c0,74.46 11.02,37.78 32.52,130.02l97.53 0c-10.83,-130.02 -19.31,-137.74 -97.53,-195.07 -0.54,0.66 -32.52,60.67 -32.52,65.05z"/>
   <path class="fil2" d="M946.47 669.57l0 97.54c87.78,-7.3 88.43,-15.25 162.54,-32.49l0 -97.53c-61.74,5.14 -113.85,13.59 -162.54,32.48z"/>
   <path class="fil2" d="M686.4 1027.22c130.59,-34.91 94.07,-8.83 97.53,-162.58l-65.05 0c-17.24,74.15 -25.03,74.8 -32.48,162.58z"/>
   <path class="fil2" d="M881.46 962.17c119.61,-9.94 120.08,-10.41 130.02,-130.02 -107.13,28.61 -103.29,18.32 -130.02,130.02z"/>
   <path class="fil2" d="M1514.12 1024.65l100.1 26.68 14.67 -7.18c-34.79,-90.16 35.14,-14.17 -50.53,-85.47 -65.05,28.45 -27.3,-50.23 -64.24,65.97z"/>
  </g>
 </g>
</svg>
